# Blender v2.92.0 OBJ File: ''
# www.blender.org
mtllib cube.mtl
o Cube.001
v -0.950000 0.950000 -1.000000
v -1.000000 0.950000 -0.950000
v -0.950000 1.000000 -0.950000
v -0.974541 0.950000 -0.992581
v -0.950000 0.974541 -0.992581
v -0.973769 0.973769 -0.987026
v -0.992581 0.974541 -0.950000
v -0.992581 0.950000 -0.974541
v -0.987026 0.973769 -0.973769
v -0.950000 0.992581 -0.974541
v -0.974541 0.992581 -0.950000
v -0.973769 0.987026 -0.973769
v 1.000000 0.950000 0.950000
v 0.950000 1.000000 0.950000
v 0.950000 0.950000 1.000000
v 0.993320 0.974967 0.950000
v 0.993320 0.950000 0.974967
v 0.986832 0.973910 0.973911
v 0.950000 0.993320 0.974967
v 0.974967 0.993320 0.950000
v 0.973911 0.986831 0.973911
v 0.974967 0.950000 0.993320
v 0.950000 0.974967 0.993320
v 0.973911 0.973910 0.986832
v 0.950000 0.950000 -1.000000
v 0.950000 1.000000 -0.950000
v 1.000000 0.950000 -0.950000
v 0.950000 0.974967 -0.993320
v 0.974967 0.950000 -0.993320
v 0.973911 0.973911 -0.986831
v 0.974967 0.993320 -0.950000
v 0.950000 0.993320 -0.974967
v 0.973911 0.986832 -0.973910
v 0.993320 0.950000 -0.974967
v 0.993320 0.974967 -0.950000
v 0.986832 0.973911 -0.973910
v -1.000000 -0.950000 0.950000
v -0.950000 -1.000000 0.950000
v -0.950000 -0.950000 1.000000
v -0.993320 -0.974967 0.950000
v -0.993320 -0.950000 0.974967
v -0.986832 -0.973911 0.973910
v -0.950000 -0.993320 0.974967
v -0.974967 -0.993320 0.950000
v -0.973911 -0.986832 0.973910
v -0.974967 -0.950000 0.993320
v -0.950000 -0.974967 0.993320
v -0.973911 -0.973911 0.986831
v 0.950000 -0.950000 1.000000
v 0.950000 -1.000000 0.950000
v 1.000000 -0.950000 0.950000
v 0.950000 -0.974967 0.993320
v 0.974967 -0.950000 0.993320
v 0.973911 -0.973911 0.986831
v 0.974967 -0.993320 0.950000
v 0.950000 -0.993320 0.974967
v 0.973911 -0.986832 0.973910
v 0.993320 -0.950000 0.974967
v 0.993320 -0.974967 0.950000
v 0.986832 -0.973911 0.973910
v -0.950000 0.950000 1.000000
v -0.950000 1.000000 0.950000
v -1.000000 0.950000 0.950000
v -0.950000 0.974967 0.993320
v -0.974967 0.950000 0.993320
v -0.973911 0.973910 0.986832
v -0.974967 0.993320 0.950000
v -0.950000 0.993320 0.974967
v -0.973911 0.986831 0.973911
v -0.993320 0.950000 0.974967
v -0.993320 0.974967 0.950000
v -0.986832 0.973910 0.973911
v -0.950000 -1.000000 -0.950000
v -1.000000 -0.950000 -0.950000
v -0.950000 -0.950000 -1.000000
v -0.974967 -0.993320 -0.950000
v -0.950000 -0.993320 -0.974967
v -0.973911 -0.986831 -0.973911
v -0.993320 -0.950000 -0.974967
v -0.993320 -0.974967 -0.950000
v -0.986832 -0.973910 -0.973911
v -0.950000 -0.974967 -0.993320
v -0.974967 -0.950000 -0.993320
v -0.973911 -0.973910 -0.986832
v 0.950000 -0.950000 -1.000000
v 1.000000 -0.950000 -0.950000
v 0.950000 -1.000000 -0.950000
v 0.974967 -0.950000 -0.993320
v 0.950000 -0.974967 -0.993320
v 0.973911 -0.973910 -0.986832
v 0.993320 -0.974967 -0.950000
v 0.993320 -0.950000 -0.974967
v 0.986832 -0.973910 -0.973911
v 0.950000 -0.993320 -0.974967
v 0.974967 -0.993320 -0.950000
v 0.973911 -0.986831 -0.973911
vt 0.012516 0.975000
vt 0.012516 0.025000
vt 0.012516 0.975000
vt 0.025000 0.975000
vt 0.975000 0.025000
vt 0.975000 0.975000
vt 0.975000 0.012516
vt 0.025000 0.000000
vt 0.975000 0.000000
vt 0.987484 0.975000
vt 0.987484 0.025000
vt 0.987484 0.025000
vt 0.025000 0.975000
vt 0.975000 0.025000
vt 0.025000 0.025000
vt 0.975000 0.987484
vt 0.025000 0.987484
vt 0.975000 0.987484
vt 0.975000 0.025000
vt 0.025000 0.025000
vt 0.025000 0.000000
vt 0.975000 0.012516
vt 0.025000 0.012516
vt 0.987484 0.975000
vt 0.975000 0.975000
vt 0.987484 0.025000
vt 0.975000 0.025000
vt 0.975000 0.012516
vt 0.975000 0.987484
vt 0.987484 0.975000
vt 1.000000 0.025000
vt 1.000000 0.013045
vt 0.986955 0.013045
vt 0.975000 0.000000
vt 0.986955 0.013045
vt 0.013115 0.006487
vt 0.009801 0.009801
vt 0.013115 0.013115
vt 0.987484 0.025000
vt 0.025000 0.987271
vt 0.025000 0.975000
vt 0.012729 0.975000
vt 0.012516 0.975000
vt 0.012729 0.025000
vt 0.025000 0.012729
vt 0.013045 1.000000
vt 0.013045 0.986955
vt 0.025000 0.025000
vt 0.993416 0.986955
vt 0.986955 0.986955
vt 0.990186 0.990186
vt 0.006584 0.986955
vt 0.003340 0.975000
vt 0.000000 0.975000
vt 0.000000 0.013115
vt 0.006487 0.013115
vt 0.003709 0.025000
vt 0.000000 0.025000
vt 0.000000 0.013045
vt 0.013045 0.986955
vt 0.025000 0.987484
vt 0.025000 1.000000
vt 0.013045 0.000000
vt 0.013045 0.013045
vt 0.025000 0.012516
vt 0.025000 0.987484
vt 0.025000 0.975000
vt 0.986955 0.006584
vt 0.990186 0.009814
vt 0.000000 0.013045
vt 0.013045 0.013045
vt 0.012516 0.025000
vt 0.986955 0.000000
vt 0.975000 0.003340
vt 0.025000 0.012516
vt 0.025000 0.025000
vt 0.025000 0.987484
vt 0.012516 0.975000
vt 0.006584 0.013045
vt 0.009814 0.009814
vt 0.986955 0.000000
vt 0.986955 0.013045
vt 0.975000 0.975000
vt 0.012516 0.975000
vt 0.025000 0.975000
vt 0.975000 0.012516
vt 0.987484 0.975000
vt 0.975000 0.975000
vt 0.975000 0.987484
vt 0.000000 0.975000
vt 0.000000 0.986955
vt 0.013045 0.993416
vt 0.009814 0.990186
vt 0.975000 0.012516
vt 0.975000 0.025000
vt 0.987484 0.025000
vt 0.025000 0.012516
vt 0.986955 1.000000
vt 0.986955 0.993416
vt 0.975000 0.996660
vt 0.006584 0.013045
vt 0.003340 0.025000
vt 0.000000 0.025000
vt 0.000000 0.986885
vt 0.013115 0.986885
vt 0.013045 0.993416
vt 0.975000 0.987484
vt 0.975000 0.975000
vt 0.987484 0.975000
vt 0.025000 0.975000
vt 0.025000 0.987484
vt 1.000000 0.975000
vt 1.000000 0.986955
vt 0.003340 0.975000
vt 0.000000 0.975000
vt 0.000000 0.986955
vt 0.975000 0.012729
vt 0.975000 0.025000
vt 0.987271 0.025000
vt 0.975000 0.000000
vt 0.006584 0.013045
vt 0.013045 0.013045
vt 0.009814 0.009814
vt 0.975000 1.000000
vt 0.025000 0.000000
vt 0.013115 0.000000
vt 0.987484 0.975000
vt 0.975000 0.975000
vt 0.975000 0.987484
vt 0.013045 0.000000
vt 0.013045 0.006584
vt 0.025000 0.003340
vt 0.012516 0.025000
vt 0.000000 0.025000
vt 0.000000 0.013045
vt 0.012516 0.025000
vt 0.025000 0.025000
vt 0.986955 0.013045
vt 0.990186 0.009814
vt 0.990186 0.009814
vt 0.012516 0.025000
vt 0.025000 0.025000
vt 0.025000 0.012516
vt 0.975000 0.000000
vt 0.000000 0.975000
vt 0.975000 1.000000
vt 0.000000 0.025000
vt 0.013045 0.006584
vt 0.025000 0.003340
vt 0.025000 0.000000
vt 0.000000 0.975000
vt 0.000000 0.986955
vt 0.000000 0.975000
vt 0.000000 0.025000
vt 0.000000 0.025000
vt 0.013045 0.986955
vt 0.000000 0.975000
vt 0.986955 0.013045
vt 0.013045 1.000000
vt 0.013045 0.986955
vt 0.975000 0.000000
vt 0.025000 0.000000
vt 0.013045 0.986955
vt 0.006584 0.986955
vt 0.986955 0.986955
vt 0.986955 0.000000
vt 0.986955 0.000000
vt 0.986955 0.986955
vt 0.986885 0.013115
vt 0.025000 1.000000
vt 0.000000 0.986955
vt 0.986955 1.000000
vt 0.986955 0.986955
vt 0.975000 1.000000
vt 0.000000 0.013045
vt 0.986955 0.986955
vt 0.986955 0.986955
vt 0.013045 0.013045
vt 0.013045 0.013045
vt 0.000000 0.025000
vt 0.025000 0.000000
vt 0.013045 0.000000
vn -0.8623 -0.4916 0.1216
vn -0.4916 -0.8623 -0.1216
vn -0.4916 -0.8623 0.1216
vn 0.0000 -0.0000 1.0000
vn 0.8623 0.1216 -0.4916
vn 0.4916 -0.1216 -0.8623
vn 0.4916 0.1216 -0.8623
vn 0.8623 0.4916 0.1216
vn 0.8623 0.4916 -0.1216
vn 0.4916 0.8623 -0.1216
vn 0.0000 1.0000 0.0000
vn 0.1216 0.8623 0.4916
vn -0.1216 0.4916 0.8623
vn 0.1216 0.4916 0.8623
vn 0.9696 0.1730 -0.1730
vn 0.9696 -0.1731 -0.1731
vn -0.1216 -0.8623 0.4916
vn 0.1216 -0.4916 0.8623
vn -0.1216 -0.4916 0.8623
vn 0.4916 0.8623 0.1216
vn 0.1731 0.9686 -0.1785
vn 1.0000 0.0000 0.0000
vn 0.4916 -0.8623 -0.1216
vn 0.1731 -0.9696 -0.1731
vn 0.1216 -0.8623 -0.4916
vn 0.8623 0.1216 0.4916
vn 0.9696 0.1731 0.1731
vn 0.1730 0.1730 0.9696
vn 0.4916 0.1216 0.8623
vn 0.7745 0.4473 -0.4473
vn 0.4473 -0.7745 -0.4473
vn 0.1216 -0.4916 -0.8623
vn -0.4408 0.4408 -0.7820
vn -0.7820 0.4408 -0.4408
vn -0.4408 0.7820 -0.4408
vn 0.4916 -0.1216 0.8623
vn 0.1731 -0.1731 0.9696
vn -0.1136 0.4957 -0.8610
vn -0.1777 0.1777 -0.9679
vn -0.4958 0.1136 -0.8610
vn -0.4916 0.1216 0.8623
vn -0.1731 0.1731 0.9696
vn -0.4957 0.8610 -0.1136
vn -0.1777 0.9679 -0.1777
vn -0.1136 0.8610 -0.4957
vn -0.4474 0.7744 0.4474
vn -0.4473 0.4473 0.7744
vn 0.7744 0.4474 0.4474
vn 0.4473 0.7745 0.4473
vn 0.4473 0.4473 0.7744
vn -0.7745 0.4473 0.4473
vn -0.8623 0.1216 0.4916
vn -0.8610 0.4957 -0.1136
vn -0.8623 -0.4916 -0.1216
vn -0.7745 -0.4473 -0.4473
vn 0.7745 -0.4473 0.4473
vn 0.8623 -0.1216 0.4916
vn -0.4474 -0.7744 -0.4474
vn -0.4473 -0.4473 -0.7744
vn -0.1216 -0.4916 -0.8623
vn -0.8623 -0.1216 0.4916
vn -0.9696 -0.1731 0.1731
vn 0.4473 0.4473 -0.7744
vn 0.4474 0.7744 -0.4474
vn -0.7744 -0.4474 0.4474
vn -0.4473 -0.4473 0.7744
vn -0.4916 -0.1216 0.8623
vn 0.1213 0.4952 -0.8603
vn -0.1216 -0.8623 -0.4916
vn -0.1731 -0.9696 -0.1731
vn -0.1730 -0.1730 0.9696
vn -0.1216 0.8623 0.4916
vn -0.1785 0.9686 0.1731
vn -0.4952 0.8603 0.1213
vn -0.4473 -0.7745 0.4473
vn 0.4474 -0.7744 0.4474
vn 0.4473 -0.4473 0.7744
vn 0.8623 -0.4916 0.1216
vn 0.9696 -0.1731 0.1731
vn 0.1213 0.8603 -0.4952
vn 0.1731 0.1784 -0.9686
vn -0.8603 0.4951 0.1213
vn 0.1731 -0.1731 -0.9696
vn 0.8623 -0.1216 -0.4916
vn 0.1730 0.9696 0.1730
vn -0.8603 -0.1213 -0.4951
vn -0.4952 -0.1213 -0.8603
vn 0.1216 -0.8623 0.4916
vn 0.1731 -0.9696 0.1731
vn 0.4916 -0.8623 0.1216
vn -0.1730 -0.9696 0.1730
vn -0.8610 0.1136 -0.4957
vn -0.9679 0.1777 -0.1777
vn -0.9686 0.1785 0.1731
vn 0.7744 -0.4474 -0.4474
vn 0.4473 -0.4473 -0.7744
vn 0.8623 -0.4916 -0.1216
vn -0.1784 -0.1731 -0.9686
vn -0.9686 -0.1731 -0.1784
vn 0.0000 -1.0000 -0.0000
vn 0.0000 0.0000 -1.0000
vn -1.0000 0.0000 0.0000
usemtl Material.001
s 1
f 40/1/1 76/2/2 44/3/3
f 61/4/4 49/5/4 15/6/4
f 34/7/5 88/8/6 29/9/7
f 16/10/8 35/11/9 31/12/10
f 62/13/11 26/14/11 3/15/11
f 19/16/12 64/17/13 23/18/14
f 34/7/5 27/19/15 86/20/16
f 43/21/17 52/22/18 47/23/19
f 20/24/20 31/12/10 26/14/21
f 86/20/22 27/19/22 13/25/22
f 95/26/23 87/27/24 94/28/25
f 17/29/26 13/25/27 16/10/8
f 23/18/14 15/6/28 22/30/29
f 31/12/10 35/31/9 36/32/30
f 96/33/31 94/28/25 89/34/32
f 36/35/30 34/7/5 29/9/7
f 6/36/33 9/37/34 12/38/35
f 53/39/36 49/5/37 52/22/18
f 5/40/38 1/41/39 4/42/40
f 65/43/41 61/4/42 64/17/13
f 11/44/43 3/15/44 10/45/45
f 69/46/46 66/47/47 64/17/13
f 61/4/4 39/48/4 49/5/4
f 18/49/48 21/50/49 24/51/50
f 72/52/51 70/53/52 65/54/41
f 12/55/35 9/56/34 7/57/53
f 76/2/2 80/58/54 81/59/55
f 60/60/56 58/61/57 53/62/36
f 78/63/58 84/64/59 82/65/60
f 41/66/61 37/67/62 40/1/1
f 30/68/63 33/69/64 36/35/30
f 42/70/65 48/71/66 46/72/67
f 33/73/64 30/68/63 28/74/68
f 77/75/69 73/76/70 76/2/2
f 47/23/19 39/48/71 46/72/67
f 68/77/72 62/13/73 67/78/74
f 19/16/12 68/77/72 64/17/13
f 42/79/65 45/80/75 48/71/66
f 57/81/76 54/82/77 52/22/18
f 62/13/11 14/83/11 26/14/11
f 59/84/78 51/85/79 58/61/57
f 32/86/80 26/14/21 31/12/10
f 29/87/7 25/88/81 28/89/68
f 67/78/74 71/90/82 72/91/51
f 54/92/77 57/93/76 60/60/56
f 89/94/32 85/95/83 88/96/6
f 34/7/5 92/97/84 88/8/6
f 18/98/48 24/99/50 22/100/29
f 20/24/20 14/83/85 19/16/12
f 81/101/55 79/102/86 83/103/87
f 9/104/34 6/105/33 4/42/40
f 66/106/47 69/46/46 72/91/51
f 56/107/88 50/108/89 55/109/90
f 44/3/3 38/110/91 43/111/17
f 16/10/8 20/112/20 21/113/49
f 55/114/90 59/115/78 60/116/56
f 8/117/92 2/118/93 7/119/53
f 43/21/17 56/120/88 52/22/18
f 78/121/58 81/122/55 84/123/59
f 21/50/49 19/16/12 23/124/14
f 10/45/45 5/125/38 6/126/33
f 71/127/82 63/128/94 70/129/52
f 93/130/95 90/131/96 88/132/6
f 91/133/97 95/134/23 96/135/31
f 83/136/87 75/137/98 82/65/60
f 90/138/96 93/139/95 96/140/31
f 80/141/54 74/142/99 79/143/86
f 41/66/61 70/129/52 63/128/94
f 35/11/9 27/19/15 34/7/5
f 10/45/45 3/15/44 26/14/21
f 50/108/89 87/27/24 95/26/23
f 22/30/29 15/6/28 49/5/37
f 10/45/45 32/86/80 28/144/68
f 55/145/90 95/134/23 91/133/97
f 25/88/81 1/41/39 5/40/38
f 82/65/60 75/137/98 85/95/83
f 7/119/53 2/118/93 63/128/94
f 22/146/29 53/62/36 58/61/57
f 59/84/78 91/133/97 86/20/16
f 47/23/19 52/22/18 49/5/37
f 46/72/67 39/48/71 61/4/42
f 19/16/12 14/83/85 62/13/73
f 43/111/17 38/110/91 50/108/89
f 62/13/73 3/15/44 11/44/43
f 92/97/84 86/20/16 91/133/97
f 74/142/99 2/118/93 8/117/92
f 7/147/53 71/90/82 67/78/74
f 45/148/75 43/149/17 47/150/19
f 82/65/60 89/94/32 94/28/25
f 40/1/1 44/151/3 45/152/75
f 4/42/40 1/41/39 75/137/98
f 44/3/3 76/2/2 73/76/70
f 46/72/67 65/43/41 70/153/52
f 23/18/14 64/17/13 61/4/42
f 29/87/7 88/96/6 85/95/83
f 50/108/100 38/110/100 73/76/100
f 77/75/69 94/28/25 87/27/24
f 13/25/27 27/19/15 35/11/9
f 17/29/26 58/61/57 51/85/79
f 4/42/40 83/136/87 79/154/86
f 75/137/101 1/41/101 25/88/101
f 37/67/62 74/142/99 80/141/54
f 2/118/102 74/142/102 37/67/102
f 10/45/45 6/126/33 12/38/35
f 12/55/35 7/57/53 11/155/43
f 11/44/43 10/45/45 12/38/35
f 67/78/74 72/91/51 69/156/46
f 5/40/38 4/42/40 6/105/33
f 9/104/34 4/42/40 8/157/92
f 32/86/80 31/12/10 33/158/64
f 60/60/56 53/62/36 54/159/77
f 41/66/61 40/1/1 42/160/65
f 33/73/64 28/74/68 32/161/80
f 83/136/87 82/65/60 84/64/59
f 40/1/1 80/141/54 76/2/2
f 47/23/19 46/72/67 48/71/66
f 93/130/95 88/132/6 92/162/84
f 44/3/3 43/111/17 45/163/75
f 55/114/90 60/116/56 57/164/76
f 20/24/20 19/16/12 21/50/49
f 31/12/10 36/32/30 33/158/64
f 17/29/26 16/10/8 18/165/48
f 36/35/30 29/9/7 30/166/63
f 95/26/23 94/28/25 96/33/31
f 96/33/31 89/34/32 90/167/96
f 23/18/14 22/30/29 24/168/50
f 57/81/76 52/22/18 56/120/88
f 8/117/92 7/119/53 9/169/34
f 69/46/46 64/17/13 68/170/72
f 68/77/72 67/78/74 69/156/46
f 72/52/51 65/54/41 66/171/47
f 89/94/32 88/96/6 90/138/96
f 21/50/49 23/124/14 24/172/50
f 29/87/7 28/89/68 30/173/63
f 18/98/48 22/100/29 17/174/26
f 59/84/78 58/61/57 60/60/56
f 81/101/55 83/103/87 84/175/59
f 56/107/88 55/109/90 57/176/76
f 16/10/8 21/113/49 18/165/48
f 71/127/82 70/129/52 72/177/51
f 91/133/97 96/135/31 93/178/95
f 77/75/69 76/2/2 78/179/58
f 76/2/2 81/59/55 78/179/58
f 53/39/36 52/22/18 54/82/77
f 42/70/65 46/72/67 41/180/61
f 65/43/41 64/17/13 66/47/47
f 78/63/58 82/65/60 77/181/69
f 80/141/54 79/143/86 81/122/55
f 45/148/75 47/150/19 48/182/66
f 92/97/84 91/133/97 93/178/95
f 40/1/1 45/152/75 42/160/65
f 35/11/9 34/7/5 36/35/30
f 7/147/53 67/78/74 11/44/43
f 74/142/99 8/117/92 79/143/86
f 41/66/61 63/128/94 37/67/62
f 82/65/60 94/28/25 77/75/69
f 82/65/60 85/95/83 89/94/32
f 22/30/29 49/5/37 53/39/36
f 22/146/29 58/61/57 17/29/26
f 59/84/78 86/20/16 51/85/79
f 4/42/40 79/154/86 8/157/92
f 46/72/67 61/4/42 65/43/41
f 17/29/26 51/85/79 13/25/27
f 77/75/69 87/27/24 73/76/70
f 50/108/100 73/76/100 87/27/100
f 37/67/62 80/141/54 40/1/1
f 23/18/14 61/4/42 15/6/28
f 46/72/67 70/153/52 41/180/61
f 19/16/12 62/13/73 68/77/72
f 4/42/40 75/137/98 83/136/87
f 62/13/73 11/44/43 67/78/74
f 25/88/81 5/40/38 28/89/68
f 10/45/45 26/14/21 32/86/80
f 10/45/45 28/144/68 5/125/38
f 7/119/53 63/128/94 71/127/82
f 50/108/89 95/26/23 55/109/90
f 55/145/90 91/133/97 59/84/78
f 43/111/17 50/108/89 56/107/88
f 44/3/3 73/76/70 38/110/91
f 2/118/102 37/67/102 63/128/102
f 34/7/5 86/20/16 92/97/84
f 29/87/7 85/95/83 25/88/81
f 86/20/22 13/25/22 51/85/22
f 20/24/20 26/14/21 14/83/85
f 13/25/27 35/11/9 16/10/8
f 16/10/8 31/12/10 20/24/20
f 47/23/19 49/5/37 39/48/71
f 75/137/101 25/88/101 85/95/101
